<svg width="1045" height="584" viewBox="0 0 1045 584" fill="none" xmlns="http://www.w3.org/2000/svg">
<g opacity="0.9">
<path opacity="0.07" d="M219.063 285.681C293.973 270.509 288.278 175.463 371.087 146.986C420.373 129.972 426.742 162.115 491.885 151.401C593.56 134.417 596.058 53.1914 666.072 60.7299C734.77 68.1253 758.308 149.203 833.926 145.003C865.822 143.022 873.701 128.19 904.833 134.77C942.999 143.132 990.222 178.554 1003.42 225.531C1024.11 299.472 957.95 389.611 887.016 402.528C815.765 415.121 787.312 341.063 716.837 350.834C629.243 362.957 634.626 481.793 552.048 494.534C474.282 506.781 447.398 404.493 334.074 383.022C217.619 361.356 126.654 407.396 48.4444 400.202C137.763 267.183 162.886 297.443 219.063 285.681Z" fill="#038AA9"/>
<path opacity="0.1" d="M276.465 297.715C346.513 289.626 350.603 225.167 429.183 208.306C475.959 198.227 478.642 220.155 539.314 214.798C634.037 206.26 644.273 151.387 707.617 158.518C769.771 165.515 783.379 221.043 853.002 220.396C882.389 219.982 891.052 210.177 918.902 215.532C953.016 222.296 992.77 247.628 1000.25 279.789C1011.95 330.407 942.576 389.462 876.387 396.141C809.941 402.592 791.147 351.669 725.687 356.234C644.328 361.892 637.624 442.436 560.795 448.658C488.42 454.686 473.825 384.713 372.204 366.9C267.736 348.864 179.972 377.368 109.094 370.232C203.864 282.843 223.896 304.041 276.465 297.715Z" fill="#038AA9"/>
</g>
</svg>
