<svg width="251" height="106" viewBox="0 0 251 106" fill="none" xmlns="http://www.w3.org/2000/svg">
<path opacity="0.07" d="M47.8683 32.6026C66.7675 32.9064 70.0546 17.2358 91.5214 15.6676C104.301 14.7238 104.266 20.1879 120.579 20.8555C146.054 21.855 150.648 8.73542 167.245 12.5522C183.531 16.2971 185.254 30.356 203.785 32.4707C211.612 33.3288 214.25 31.2077 221.472 33.4299C230.311 36.2022 240.015 43.7113 240.907 51.841C242.29 64.6336 221.83 76.8474 204.005 76.3239C186.119 75.7357 182.861 62.6368 165.302 61.6185C143.478 60.3494 138.947 79.8782 118.309 78.8951C98.8617 78.0098 97.3695 60.3771 70.9605 52.6915C43.8021 44.8583 19.4963 48.9813 0.895977 44.9172C29.0741 26.5855 33.6764 32.4371 47.8683 32.6026Z" fill="#038AA9"/>
<path opacity="0.1" d="M70.4769 59.6247C87.8929 58.7076 89.896 42.8591 109.553 39.9085C121.255 38.1416 121.579 43.596 136.639 43.2089C160.152 42.5614 163.525 29.174 179.052 31.9108C194.286 34.596 196.789 48.5128 213.985 49.4264C221.246 49.7773 223.535 47.4905 230.328 49.2416C238.644 51.4372 248.067 58.3032 249.419 66.3574C251.526 79.0326 233.49 92.5407 217.049 93.1691C200.547 93.737 196.693 80.8772 180.464 80.9949C160.294 81.1375 157.397 100.916 138.336 101.268C120.378 101.64 117.853 84.1422 93.0434 78.1785C67.5338 72.116 45.43 77.7993 28.0438 74.945C52.7848 54.8342 57.4029 60.3758 70.4769 59.6247Z" fill="#038AA9"/>
<path d="M182.415 93.5415C180.222 92.685 178.124 91.638 176.122 90.4007C170.878 87.1647 166.396 82.5011 163.536 76.9809C163.059 76.1244 162.296 75.3629 161.438 74.8871C158.292 72.9835 155.241 70.6993 152.476 68.1296C150.664 66.5116 148.662 59.9445 136.648 58.0409C132.357 59.7541 132.071 63.0853 127.78 64.8936C127.208 65.0839 126.636 64.8936 126.159 64.4177C125.683 64.037 125.492 63.466 125.206 62.9901C125.206 62.8949 125.11 62.8949 125.015 62.7997C124.729 62.3239 124.348 62.0383 123.871 61.848C123.394 61.7528 122.917 61.848 122.441 61.848C121.964 61.848 121.487 61.7528 121.106 61.4673C120.724 60.9914 120.915 60.3252 121.106 59.7541C121.297 59.183 121.487 58.5168 121.297 57.9458C119.962 58.2313 118.627 57.5651 117.769 56.5181C117.673 56.4229 117.483 56.2326 117.387 56.1374C116.529 54.9001 116.148 53.3773 115.766 51.9497C121.201 53.187 126.922 52.7111 132.071 50.6172C132.071 50.6172 132.071 50.6172 132.071 50.522L132.166 50.4269C132.166 50.3317 132.071 50.1413 132.071 50.0462C131.499 48.0475 130.736 46.144 129.878 44.2404C129.592 43.5742 129.306 42.908 129.02 42.2417C127.971 40.1479 126.922 38.054 126.064 35.865C124.157 31.3917 122.345 26.9184 120.438 22.4452C120.343 22.1596 120.248 21.8741 120.057 21.5886C116.338 19.2092 113.192 16.0684 110.713 12.4517C108.424 9.12055 106.899 5.31352 105.373 1.60166C105.278 1.41131 105.183 1.12578 105.183 0.840253C105.183 0.554725 105.278 0.174022 105.564 0.0788463C105.85 -0.111505 106.327 0.0788463 106.517 0.269198C108.424 2.45824 110.808 4.17141 113.383 5.40869C116.052 6.64598 118.913 7.40739 121.583 8.5495C126.064 10.3578 130.164 13.2131 133.406 16.6394C134.931 18.2574 135.885 19.7802 137.029 21.6838C138.65 24.3487 140.08 27.1088 141.415 29.8689C142.559 32.3435 143.703 35.0084 144.848 37.5781L145.61 39.0058C146.469 40.7189 147.517 42.3369 148.662 43.7646C148.757 43.8597 148.757 43.9549 148.852 44.0501C149.424 43.9549 150.092 43.8597 150.664 43.7646C150.855 43.7646 150.95 43.7646 151.141 43.7646C152.762 43.5742 154.382 43.479 156.099 43.5742C157.052 43.5742 158.006 43.6694 158.959 44.0501C159.722 44.4308 160.485 45.0018 160.771 45.8584C160.771 45.9536 160.866 46.0488 160.866 46.144C161.152 46.144 161.343 46.144 161.629 46.144C162.582 46.2391 163.631 46.8102 164.299 47.4764C162.678 47.2861 161.057 47.1909 159.627 47.8571C159.055 48.1426 158.578 48.5234 158.196 48.9041C157.338 49.6655 156.575 50.522 155.908 51.3786C157.052 52.3304 158.101 53.187 159.245 54.1387C162.678 56.994 166.11 59.8493 169.638 62.7997C171.545 64.3225 172.88 66.3212 173.738 68.6055C176.408 76.8858 179.364 85.1661 182.415 93.5415Z" fill="url(#paint0_linear)"/>
<path opacity="0.49" d="M132.738 50.5226C131.689 52.4261 129.592 53.473 127.589 54.0441C125.492 54.6151 123.299 54.7103 121.296 55.1862C120.152 55.4717 118.912 55.9476 117.864 56.6138C117.768 56.5187 117.578 56.3283 117.482 56.2331C116.624 54.9958 116.243 53.473 115.861 52.0454C121.296 53.2827 127.017 52.8068 132.166 50.7129C132.166 50.7129 132.166 50.7129 132.166 50.6178C132.452 50.5226 132.643 50.5226 132.738 50.5226Z" fill="#2E4CB9"/>
<path opacity="0.49" d="M160.676 45.7637C160.485 45.8589 160.199 45.8589 159.913 45.7637C158.101 45.383 156.099 45.5734 154.383 46.3348C153.334 46.8106 152.19 47.5721 150.95 47.2865C150.187 47.0962 149.615 46.5251 149.234 45.7637C149.043 45.383 148.566 44.4313 148.566 43.765C148.662 43.8602 148.662 43.9554 148.757 44.0505C151.141 43.6698 153.525 43.4795 156.004 43.4795C156.957 43.4795 157.911 43.5747 158.864 43.9554C159.627 44.3361 160.39 44.9071 160.676 45.7637Z" fill="#2E4CB9"/>
<path opacity="0.16" d="M151.045 43.6694C149.806 45.1922 147.899 46.715 146.469 45.5729C145.038 44.4308 143.894 42.908 142.75 41.4803C137.792 35.1987 132.452 28.9171 125.492 24.9197C123.871 24.0632 122.155 23.2066 120.534 22.4452C120.438 22.1596 120.343 21.8741 120.152 21.5886C116.434 19.2092 113.287 16.0684 110.808 12.4517C108.52 9.12055 106.994 5.31352 105.469 1.60166C105.278 1.41131 105.183 1.12578 105.183 0.840253C105.183 0.554726 105.278 0.174022 105.564 0.0788463C105.85 -0.111505 106.327 0.0788463 106.517 0.269198C108.424 2.45824 110.808 4.17141 113.383 5.40869C116.052 6.64598 118.913 7.40739 121.583 8.5495C126.064 10.3578 130.164 13.2131 133.406 16.6394C134.931 18.2574 135.885 19.7802 137.029 21.6838C138.65 24.3487 140.08 27.1088 141.415 29.8689C143.608 34.6277 145.42 39.672 148.662 43.7646C148.757 43.8597 148.757 43.9549 148.852 44.0501C149.424 43.9549 149.806 43.7646 151.045 43.6694Z" fill="#3FB8F3"/>
<path opacity="0.49" d="M161.438 46.0493C157.815 46.0493 156.384 50.0467 155.622 51.3792C151.045 56.5187 142.94 54.7104 140.271 55.0911C136.933 55.5669 133.787 56.709 130.831 58.327C128.638 59.5643 126.826 60.992 125.11 62.8003C124.824 62.3244 124.443 62.0389 123.966 61.8485C123.489 61.7534 123.012 61.8485 122.536 61.8485C122.059 61.8485 121.582 61.7534 121.201 61.4678C120.819 60.992 121.01 60.3257 121.201 59.7547C121.392 59.1836 121.582 58.5174 121.392 57.9463C120.057 58.2319 118.722 57.5656 117.864 56.5187C117.768 56.4235 117.578 56.2332 117.482 56.138C116.624 54.9007 116.243 53.3779 115.861 51.9502C121.296 53.1875 127.017 52.7117 132.166 50.6178C132.166 50.6178 132.166 50.6178 132.166 50.5226L132.261 50.4274C132.261 50.3323 132.261 50.713 132.166 50.6178C134.264 50.713 136.266 50.1419 138.364 49.9516C142.178 49.5709 146.087 48.5239 148.947 45.9542C149.71 45.2879 150.378 44.5265 150.95 43.67C152.571 43.4796 154.191 43.3844 155.908 43.4796C156.861 43.4796 157.815 43.5748 158.768 43.9555C159.531 44.3362 160.294 44.9072 160.58 45.7638C160.58 45.859 160.675 45.9542 160.675 46.0493C160.961 46.0493 161.152 46.0493 161.438 46.0493Z" fill="url(#paint1_linear)"/>
<path opacity="0.49" d="M182.415 93.5422C180.222 92.6856 178.124 91.6387 176.122 90.4014C175.073 88.3075 174.31 86.1185 173.833 83.7391C173.071 79.932 173.071 75.8395 171.545 72.318C169.924 68.5109 166.778 65.5605 164.012 62.4197C161.915 60.0403 159.722 57.185 158.959 54.0442C162.392 56.8995 165.824 59.7547 169.352 62.7052C171.259 64.228 172.594 66.2267 173.452 68.5109C176.408 76.8864 179.364 85.1667 182.415 93.5422Z" fill="#3399CC"/>
<defs>
<linearGradient id="paint0_linear" x1="151.185" y1="44.0467" x2="98.1322" y2="64.4151" gradientUnits="userSpaceOnUse">
<stop stop-color="#00689A"/>
<stop offset="0.703042" stop-color="#1958B0"/>
</linearGradient>
<linearGradient id="paint1_linear" x1="115.944" y1="53.1372" x2="161.42" y2="53.1372" gradientUnits="userSpaceOnUse">
<stop stop-color="#2D73D5"/>
<stop offset="1" stop-color="#50BFF4"/>
</linearGradient>
</defs>
</svg>
