<svg width="24" height="24" viewBox="0 0 24 24" fill="none" xmlns="http://www.w3.org/2000/svg">
<path fill-rule="evenodd" clip-rule="evenodd" d="M13 11.9106C13 12.4594 12.552 12.9031 12 12.9031C11.448 12.9031 11 12.4594 11 11.9106V1.98571C11 1.43687 11.448 0.993225 12 0.993225C12.552 0.993225 13 1.43687 13 1.98571V11.9106ZM15.2389 3.51468C15.4919 3.02737 16.0959 2.8378 16.5859 3.08791C19.9249 4.80194 21.9999 8.18136 21.9999 11.9101C21.9999 17.3817 17.5139 21.835 11.9999 21.835C6.48589 21.835 1.99989 17.3817 1.99989 11.9101C1.99989 8.18136 4.07489 4.80194 7.41489 3.08791C7.90389 2.83681 8.50789 3.02638 8.76189 3.51468C9.01589 4.001 8.82289 4.59947 8.33289 4.85156C5.65989 6.22219 3.99989 8.92672 3.99989 11.9101C3.99989 16.288 7.58889 19.85 11.9999 19.85C16.4109 19.85 19.9999 16.288 19.9999 11.9101C19.9999 8.92672 18.3399 6.22219 15.6679 4.85156C15.1769 4.59947 14.9849 4.001 15.2389 3.51468Z" fill="#D8D8D8"/>
<mask id="mask0" mask-type="alpha" maskUnits="userSpaceOnUse" x="1" y="0" width="21" height="22">
<path fill-rule="evenodd" clip-rule="evenodd" d="M13 11.9106C13 12.4594 12.552 12.9031 12 12.9031C11.448 12.9031 11 12.4594 11 11.9106V1.98571C11 1.43687 11.448 0.993225 12 0.993225C12.552 0.993225 13 1.43687 13 1.98571V11.9106ZM15.2389 3.51468C15.4919 3.02737 16.0959 2.8378 16.5859 3.08791C19.9249 4.80194 21.9999 8.18136 21.9999 11.9101C21.9999 17.3817 17.5139 21.835 11.9999 21.835C6.48589 21.835 1.99989 17.3817 1.99989 11.9101C1.99989 8.18136 4.07489 4.80194 7.41489 3.08791C7.90389 2.83681 8.50789 3.02638 8.76189 3.51468C9.01589 4.001 8.82289 4.59947 8.33289 4.85156C5.65989 6.22219 3.99989 8.92672 3.99989 11.9101C3.99989 16.288 7.58889 19.85 11.9999 19.85C16.4109 19.85 19.9999 16.288 19.9999 11.9101C19.9999 8.92672 18.3399 6.22219 15.6679 4.85156C15.1769 4.59947 14.9849 4.001 15.2389 3.51468Z" fill="white"/>
</mask>
<g mask="url(#mask0)">
<rect width="24" height="23.8197" fill="#D8D8D8"/>
</g>
</svg>
