<svg width="865" height="462" viewBox="0 0 865 462" fill="none" xmlns="http://www.w3.org/2000/svg">
<mask id="mask0" mask-type="alpha" maskUnits="userSpaceOnUse" x="0" y="0" width="865" height="462">
<rect x="0.5" y="0.5" width="864" height="461" rx="3.5" fill="white" stroke="black"/>
</mask>
<g mask="url(#mask0)">
<path d="M544.32 356.165C582.44 354.626 587.281 322.672 630.362 317.069C656.008 313.712 656.56 324.727 689.51 324.216C740.96 323.33 748.725 296.369 782.607 302.171C815.851 307.864 820.923 336 858.51 338.152C874.38 338.99 879.455 334.416 894.261 338.072C912.388 342.653 932.799 356.68 935.522 372.962C939.766 398.584 899.924 425.526 863.944 426.5C827.833 427.351 819.775 401.325 784.275 401.271C740.152 401.198 733.244 441.068 691.542 441.436C652.25 441.865 647.236 406.502 593.142 394.019C537.521 381.325 489.009 392.401 451.063 386.328C505.761 346.178 515.701 357.446 544.32 356.165Z" fill="#EBF3F5"/>
<path d="M535.954 437.938C572.866 428.295 570.772 396.045 611.664 381.372C636.002 372.617 638.893 383.26 670.974 375.725C721.049 363.874 722.878 335.877 757.217 334.311C790.91 332.774 801.873 359.178 839.052 353.255C854.736 350.686 858.716 345.133 873.961 345.544C892.649 346.148 915.585 355.494 921.721 370.819C931.337 394.944 898.167 429.772 863.225 438.406C828.129 446.947 814.699 423.242 780.006 430.769C736.885 440.118 738.649 480.544 697.987 489.808C659.694 498.617 647.244 465.139 591.733 464.495C534.683 463.97 489.655 485.148 451.287 487.317C496.152 436.415 508.269 445.301 535.954 437.938Z" fill="#D6EAEE"/>
<path d="M809.139 436.999C805.125 435.431 801.286 433.515 797.622 431.251C788.024 425.328 779.823 416.793 774.588 406.691C773.715 405.123 772.319 403.73 770.749 402.859C764.99 399.375 759.406 395.195 754.346 390.492C751.03 387.531 747.366 375.512 725.379 372.028C717.527 375.164 717.003 381.26 709.151 384.57C708.104 384.918 707.057 384.57 706.184 383.699C705.312 383.002 704.963 381.957 704.439 381.086C704.439 380.912 704.265 380.912 704.09 380.738C703.567 379.867 702.869 379.344 701.996 378.996C701.124 378.822 700.251 378.996 699.379 378.996C698.506 378.996 697.634 378.822 696.936 378.299C696.238 377.428 696.587 376.209 696.936 375.164C697.285 374.119 697.634 372.899 697.285 371.854C694.842 372.377 692.399 371.157 690.828 369.241C690.654 369.067 690.305 368.719 690.13 368.545C688.56 366.28 687.862 363.493 687.164 360.881C697.11 363.145 707.58 362.274 717.003 358.442C717.003 358.442 717.003 358.442 717.003 358.268L717.178 358.094C717.178 357.92 717.003 357.571 717.003 357.397C715.956 353.739 714.56 350.256 712.99 346.772C712.466 345.553 711.943 344.333 711.419 343.114C709.5 339.282 707.58 335.45 706.01 331.444C702.52 323.257 699.204 315.071 695.714 306.884C695.54 306.361 695.365 305.839 695.016 305.316C688.211 300.962 682.452 295.214 677.915 288.595C673.727 282.498 670.935 275.531 668.143 268.738C667.969 268.39 667.794 267.867 667.794 267.344C667.794 266.822 667.969 266.125 668.492 265.951C669.016 265.603 669.888 265.951 670.237 266.299C673.727 270.306 678.09 273.441 682.801 275.705C687.687 277.97 692.922 279.363 697.808 281.453C706.01 284.763 713.513 289.988 719.446 296.259C722.238 299.22 723.983 302.007 726.077 305.49C729.043 310.368 731.661 315.419 734.104 320.47C736.198 324.999 738.292 329.876 740.386 334.579L741.782 337.192C743.352 340.327 745.272 343.288 747.366 345.901C747.54 346.075 747.54 346.249 747.715 346.423C748.762 346.249 749.983 346.075 751.03 345.901C751.379 345.901 751.554 345.901 751.903 345.901C754.869 345.553 757.836 345.378 760.977 345.553C762.722 345.553 764.467 345.727 766.212 346.423C767.608 347.12 769.004 348.165 769.527 349.733C769.527 349.907 769.702 350.081 769.702 350.256C770.225 350.256 770.574 350.256 771.098 350.256C772.843 350.43 774.762 351.475 775.984 352.694C773.017 352.346 770.051 352.172 767.433 353.391C766.386 353.913 765.514 354.61 764.816 355.307C763.245 356.7 761.849 358.268 760.628 359.836C762.722 361.577 764.641 363.145 766.735 364.887C773.017 370.112 779.299 375.338 785.756 380.738C789.246 383.524 791.689 387.182 793.259 391.363C798.145 406.517 803.555 421.671 809.139 436.999Z" fill="url(#paint0_linear)"/>
<path opacity="0.49" d="M718.224 358.27C716.305 361.753 712.466 363.669 708.801 364.714C704.962 365.759 700.949 365.934 697.284 366.804C695.19 367.327 692.922 368.198 691.002 369.417C690.828 369.243 690.479 368.895 690.304 368.721C688.734 366.456 688.036 363.669 687.338 361.056C697.284 363.321 707.754 362.45 717.177 358.618C717.177 358.618 717.177 358.618 717.177 358.444C717.701 358.27 718.05 358.27 718.224 358.27Z" fill="#2E4CB9"/>
<path opacity="0.49" d="M769.353 349.559C769.004 349.733 768.481 349.733 767.957 349.559C764.642 348.863 760.977 349.211 757.836 350.604C755.917 351.475 753.823 352.869 751.554 352.346C750.158 351.998 749.111 350.953 748.413 349.559C748.064 348.863 747.192 347.121 747.192 345.901C747.366 346.076 747.366 346.25 747.541 346.424C751.903 345.727 756.266 345.379 760.803 345.379C762.548 345.379 764.293 345.553 766.038 346.25C767.434 346.947 768.83 347.992 769.353 349.559Z" fill="#2E4CB9"/>
<path opacity="0.16" d="M751.728 345.727C749.46 348.514 745.97 351.301 743.352 349.21C740.735 347.12 738.641 344.333 736.547 341.721C727.473 330.224 717.701 318.728 704.963 311.413C701.996 309.845 698.855 308.277 695.889 306.884C695.714 306.361 695.54 305.839 695.191 305.316C688.385 300.962 682.627 295.214 678.09 288.595C673.902 282.498 671.11 275.531 668.318 268.738C667.969 268.39 667.794 267.867 667.794 267.344C667.794 266.822 667.969 266.125 668.492 265.951C669.016 265.603 669.888 265.951 670.237 266.299C673.727 270.306 678.09 273.441 682.801 275.705C687.687 277.97 692.922 279.363 697.808 281.453C706.01 284.763 713.513 289.988 719.446 296.259C722.238 299.22 723.983 302.007 726.077 305.49C729.043 310.368 731.661 315.419 734.104 320.47C738.117 329.179 741.433 338.411 747.366 345.901C747.54 346.075 747.54 346.249 747.715 346.423C748.762 346.249 749.46 345.901 751.728 345.727Z" fill="#3FB8F3"/>
<path opacity="0.49" d="M770.748 350.082C764.117 350.082 761.5 357.398 760.104 359.836C751.728 369.242 736.896 365.932 732.01 366.629C725.902 367.5 720.144 369.59 714.734 372.551C710.721 374.816 707.405 377.429 704.264 380.738C703.741 379.867 703.043 379.345 702.17 378.996C701.298 378.822 700.425 378.996 699.553 378.996C698.68 378.996 697.808 378.822 697.11 378.299C696.412 377.429 696.761 376.209 697.11 375.164C697.459 374.119 697.808 372.9 697.459 371.855C695.016 372.377 692.573 371.158 691.002 369.242C690.828 369.068 690.479 368.719 690.304 368.545C688.734 366.281 688.036 363.494 687.338 360.881C697.284 363.146 707.754 362.275 717.177 358.443C717.177 358.443 717.177 358.443 717.177 358.268L717.352 358.094C717.352 357.92 717.352 358.617 717.177 358.443C721.016 358.617 724.681 357.572 728.52 357.223C735.5 356.527 742.654 354.611 747.889 349.908C749.285 348.688 750.506 347.295 751.553 345.727C754.52 345.379 757.486 345.205 760.627 345.379C762.372 345.379 764.117 345.553 765.862 346.25C767.258 346.947 768.654 347.992 769.178 349.559C769.178 349.733 769.352 349.908 769.352 350.082C769.876 350.082 770.225 350.082 770.748 350.082Z" fill="url(#paint1_linear)"/>
<path opacity="0.49" d="M809.139 436.999C805.125 435.431 801.286 433.515 797.622 431.251C795.702 427.419 794.306 423.413 793.434 419.058C792.038 412.091 792.038 404.601 789.246 398.156C786.279 391.189 780.521 385.789 775.46 380.041C771.621 375.686 767.608 370.461 766.212 364.713C772.494 369.938 778.776 375.164 785.232 380.564C788.722 383.35 791.165 387.008 792.736 391.189C798.145 406.517 803.555 421.671 809.139 436.999Z" fill="#3399CC"/>
</g>
<defs>
<linearGradient id="paint0_linear" x1="751.984" y1="346.417" x2="654.891" y2="383.694" gradientUnits="userSpaceOnUse">
<stop stop-color="#00689A"/>
<stop offset="0.703042" stop-color="#1958B0"/>
</linearGradient>
<linearGradient id="paint1_linear" x1="687.488" y1="363.053" x2="770.715" y2="363.053" gradientUnits="userSpaceOnUse">
<stop stop-color="#2D73D5"/>
<stop offset="1" stop-color="#50BFF4"/>
</linearGradient>
</defs>
</svg>
