<svg width="24" height="24" viewBox="0 0 24 24" fill="none" xmlns="http://www.w3.org/2000/svg">
<path fill-rule="evenodd" clip-rule="evenodd" d="M3 4.96245V18.8573C3 19.949 3.89 20.8422 5 20.8422H19C20.1 20.8422 21 19.949 21 18.8573V4.96245C21 3.87072 20.1 2.97748 19 2.97748H5C3.89 2.97748 3 3.87072 3 4.96245ZM15 8.9324C15 10.5799 13.66 11.9099 12 11.9099C10.34 11.9099 9 10.5799 9 8.9324C9 7.28487 10.34 5.95494 12 5.95494C13.66 5.95494 15 7.28487 15 8.9324ZM6 16.8723C6 14.8873 10 13.7956 12 13.7956C14 13.7956 18 14.8873 18 16.8723V17.8648H6V16.8723Z" fill="#DBDBDB"/>
</svg>
